<svg xmlns="http://www.w3.org/2000/svg" xmlns:svg="http://www.w3.org/2000/svg" xmlns:xlink="http://www.w3.org/1999/xlink" id="svg5" width="343.897" height="204.207" version="1.1" viewBox="0 0 85.974 51.052"><defs id="defs2"><rect id="rect12253" width="40" height="130" x="30" y="620"/><linearGradient id="linearGradient5412"><stop style="stop-color:#fff;stop-opacity:1" id="stop5408" offset="0"/><stop style="stop-color:#fff;stop-opacity:0" id="stop5410" offset="1"/></linearGradient><linearGradient id="linearGradient5414" x1="87.758" x2="101.25" y1="108.879" y2="108.879" gradientTransform="matrix(0.72207104,0,0,1.0285629,-156.5227,-2.9891017)" gradientUnits="userSpaceOnUse" xlink:href="#linearGradient5412"/></defs><g id="layer2" transform="translate(-7.1805818,-87.0369)"><rect style="fill:#fff;stroke:#fff;stroke-width:.259376" id="rect3149" width="85.565" height="50.792" x="7.31" y="87.167" ry="0"/></g><g id="layer1" transform="translate(-7.1805818,-87.0369)"><use id="use8631" x="0" y="0" transform="translate(-10,5)" xlink:href="#use8255"/><rect style="fill:#fff;fill-opacity:.752033;stroke:#fff;stroke-width:.250574;stroke-opacity:.747967" id="rect8333" width="30.011" height="5.021" x="12.5" y="112.489"/><use id="use6337" x="0" y="0" transform="translate(5)" xlink:href="#use1713"/><text xml:space="preserve" style="font-size:2.66668px;line-height:1.25;font-family:sans-serif;fill:#00f;stroke-width:.25" id="text6341" x="84.143" y="128.471"><tspan id="tspan6339" style="fill:#00f;stroke-width:.25" x="84.143" y="128.471">7</tspan></text><use id="use7148" x="0" y="0" transform="translate(5)" xlink:href="#use6337"/><text xml:space="preserve" style="font-size:7.20544px;line-height:1.25;font-family:sans-serif;stroke-width:.675507" id="text5327" x="47.139" y="116.216" transform="rotate(-19.854884)"><tspan id="tspan5325" style="font-weight:700;stroke-width:.675507" x="47.139" y="116.216">...</tspan></text><rect style="fill:#00f;fill-opacity:.170732;stroke:none;stroke-width:.264685" id="rect3171" width="45" height="42.346" x="47.5" y="87.654"/><text xml:space="preserve" style="font-size:2.66668px;line-height:1.25;font-family:sans-serif;fill:#00f;stroke-width:.25" id="text7152" x="89.156" y="128.472"><tspan id="tspan7150" style="fill:#00f;stroke-width:.25" x="89.156" y="128.472">8</tspan></text><text xml:space="preserve" style="font-size:2.66668px;line-height:1.25;font-family:sans-serif;fill:#00f;stroke-width:.25" id="text5439" x="18.689" y="128.471"><tspan id="tspan5437" style="fill:#00f;stroke-width:.25" x="18.689" y="128.471">-6</tspan></text><text xml:space="preserve" style="font-size:2.66668px;line-height:1.25;font-family:sans-serif;fill:#00f;stroke-width:.25" id="text5505" x="49.152" y="128.471"><tspan id="tspan5503" style="fill:#00f;stroke-width:.25" x="49.152" y="128.471">0</tspan></text><text xml:space="preserve" style="font-size:2.66668px;line-height:1.25;font-family:sans-serif;fill:#00f;stroke-width:.25" id="text5509" x="54.128" y="128.472"><tspan id="tspan5507" style="fill:#00f;stroke-width:.25" x="54.128" y="128.472">1</tspan></text><text xml:space="preserve" style="font-size:2.66668px;line-height:1.25;font-family:sans-serif;fill:#00f;stroke-width:.25" id="text5513" x="59.187" y="128.49"><tspan id="tspan5511" style="fill:#00f;stroke-width:.25" x="59.187" y="128.49">2</tspan></text><text xml:space="preserve" style="font-size:2.66668px;line-height:1.25;font-family:sans-serif;fill:#00f;stroke-width:.25" id="text5517" x="64.157" y="128.471"><tspan id="tspan5515" style="fill:#00f;stroke-width:.25" x="64.157" y="128.471">3</tspan></text><text xml:space="preserve" style="font-size:2.66668px;line-height:1.25;font-family:sans-serif;fill:#00f;stroke-width:.25" id="text5521" x="69.161" y="128.472"><tspan id="tspan5519" style="fill:#00f;stroke-width:.25" x="69.161" y="128.472">4</tspan></text><text xml:space="preserve" style="font-size:2.66668px;line-height:1.25;font-family:sans-serif;fill:#00f;stroke-width:.25" id="text5525" x="74.165" y="128.453"><tspan id="tspan5523" style="fill:#00f;stroke-width:.25" x="74.165" y="128.453">5</tspan></text><text xml:space="preserve" style="font-size:2.66668px;line-height:1.25;font-family:sans-serif;fill:#00f;stroke-width:.25" id="text5529" x="43.729" y="128.472"><tspan id="tspan5527" style="fill:#00f;stroke-width:.25" x="43.729" y="128.472">-1</tspan></text><text xml:space="preserve" style="font-size:2.66668px;line-height:1.25;font-family:sans-serif;fill:#00f;stroke-width:.25" id="text5533" x="38.739" y="128.49"><tspan id="tspan5531" style="fill:#00f;stroke-width:.25" x="38.739" y="128.49">-2</tspan></text><text xml:space="preserve" style="font-size:2.66668px;line-height:1.25;font-family:sans-serif;fill:#00f;stroke-width:.25" id="text5537" x="33.712" y="128.471"><tspan id="tspan5535" style="fill:#00f;stroke-width:.25" x="33.712" y="128.471">-3</tspan></text><text xml:space="preserve" style="font-size:2.66668px;line-height:1.25;font-family:sans-serif;fill:#00f;stroke-width:.25" id="text5541" x="28.68" y="128.472"><tspan id="tspan5539" style="fill:#00f;stroke-width:.25" x="28.68" y="128.472">-4</tspan></text><text xml:space="preserve" style="font-size:2.66668px;line-height:1.25;font-family:sans-serif;fill:#00f;stroke-width:.25" id="text5545" x="23.722" y="128.453"><tspan id="tspan5543" style="fill:#00f;stroke-width:.25" x="23.722" y="128.453">-5</tspan></text><text xml:space="preserve" style="font-size:2.66668px;line-height:1.25;font-family:sans-serif;fill:#00f;stroke-width:.25" id="text5719" x="13.719" y="128.472"><tspan id="tspan5717" style="fill:#00f;stroke-width:.25" x="13.719" y="128.472">-7</tspan></text><rect style="fill:none;stroke:#00f;stroke-width:.25" id="rect5950" width="5" height="5" x="17.5" y="125"/><use id="use1279" x="0" y="0" transform="translate(5)" xlink:href="#rect5950"/><use id="use1285" x="0" y="0" transform="translate(5)" xlink:href="#use1279"/><use id="use1287" x="0" y="0" transform="translate(-5)" xlink:href="#rect5950"/><use id="use1289" x="0" y="0" transform="translate(5)" xlink:href="#use1285"/><use id="use1291" x="0" y="0" transform="translate(5)" xlink:href="#use1289"/><use id="use1332" x="0" y="0" transform="translate(5)" xlink:href="#use1291"/><use id="use1334" x="0" y="0" transform="translate(5)" xlink:href="#use1332"/><use id="use1336" x="0" y="0" transform="translate(5)" xlink:href="#use1334"/><use id="use1338" x="0" y="0" transform="translate(5)" xlink:href="#use1336"/><use id="use1340" x="0" y="0" transform="translate(5)" xlink:href="#use1338"/><use id="use1342" x="0" y="0" transform="translate(5)" xlink:href="#use1340"/><use id="use1344" x="0" y="0" transform="translate(5)" xlink:href="#use1342"/><use id="use1713" x="0" y="0" transform="translate(5)" xlink:href="#use1344"/><text xml:space="preserve" style="font-size:2.66668px;line-height:1.25;font-family:sans-serif;fill:#00f;stroke-width:.25" id="text1717" x="79.143" y="128.471"><tspan id="tspan1715" style="fill:#00f;stroke-width:.25" x="79.143" y="128.471">6</tspan></text><g id="path2229" style="fill:#000"><path style="color:#000;fill:#000;stroke-width:.25px;-inkscape-stroke:none" id="path6330" d="M 12.5,120 V 90.19399"/><path style="color:#000;fill:#000;-inkscape-stroke:none" id="path6332" d="M 12.375,90.193359 V 120 h 0.25 V 90.193359 Z"/><g id="g6324" style="fill:#000"><path style="fill:#000;fill-rule:evenodd;stroke-width:.125" id="path6326" d="m 12.5,90.19399 0.625,0.625 -0.625,-2.1875 -0.625,2.1875 z"/></g></g><path style="fill:none;stroke:#000;stroke-width:.25px;stroke-linecap:butt;stroke-linejoin:miter;stroke-opacity:1" id="use2823" d="m 11.25,110 h 2.5"/><use id="use2825" x="0" y="0" transform="translate(0,5)" xlink:href="#use2823"/><use id="use2827" x="0" y="0" transform="translate(0,-10)" xlink:href="#use2825"/><use id="use2829" x="0" y="0" transform="translate(0,-5)" xlink:href="#use2827"/><use id="use2831" x="0" y="0" transform="translate(0,-5)" xlink:href="#use2829"/><text xml:space="preserve" style="font-size:2.66668px;line-height:1.25;font-family:sans-serif;stroke-width:.25" id="text2839" x="8.152" y="105.971"><tspan id="tspan2837" style="stroke-width:.25" x="8.152" y="105.971">0</tspan></text><text xml:space="preserve" style="font-size:2.66668px;line-height:1.25;font-family:sans-serif;stroke-width:.25" id="text2843" x="7.729" y="110.972"><tspan id="tspan2841" style="stroke-width:.25" x="7.729" y="110.972">-1</tspan></text><text xml:space="preserve" style="font-size:2.66668px;line-height:1.25;font-family:sans-serif;stroke-width:.25" id="text2847" x="7.739" y="115.99"><tspan id="tspan2845" style="stroke-width:.25" x="7.739" y="115.99">-2</tspan></text><text xml:space="preserve" style="font-size:2.66668px;line-height:1.25;font-family:sans-serif;stroke-width:.25" id="text2851" x="8.128" y="100.972"><tspan id="tspan2849" style="stroke-width:.25" x="8.128" y="100.972">1</tspan></text><text xml:space="preserve" style="font-size:2.66668px;line-height:1.25;font-family:sans-serif;stroke-width:.25" id="text2855" x="8.187" y="95.99"><tspan id="tspan2853" style="stroke-width:.25" x="8.187" y="95.99">2</tspan></text><text xml:space="preserve" style="font-size:2.66668px;line-height:1.25;font-family:sans-serif;fill:#00f;stroke-width:.25" id="text3931" x="9.137" y="128.513"><tspan id="tspan3929" style="fill:#00f;stroke-width:.25" x="9.137" y="128.513"><tspan style="font-style:italic" id="tspan3941">k</tspan></tspan></text><text xml:space="preserve" style="font-size:2.66668px;line-height:1.25;font-family:sans-serif;stroke-width:.25" id="text3935" x="10.034" y="89.167"><tspan id="tspan3933" style="font-style:italic;stroke-width:.25" x="10.034" y="89.167">p</tspan></text><g id="path4281"><path style="color:#000;fill:#00f;-inkscape-stroke:none" id="path7444" d="m 24.875,131.5 v 2.5 h 0.25 v -2.5 z"/><g id="g7434"><g id="path7436"><path style="color:#000;fill:#00f;fill-rule:evenodd;stroke-width:.125pt;-inkscape-stroke:none" id="path7440" d="m 25,130.75 c 0.125,0.375 0.375,0.875 0.625,1.125 0,0 -0.5,0 -0.625,-0.25 -0.125,0.25 -0.625,0.25 -0.625,0.25 0.25,-0.25 0.5,-0.75 0.625,-1.125 z"/><path style="color:#000;fill:#00f;fill-rule:evenodd;-inkscape-stroke:none" id="path7442" d="m 25,130.48633 -0.07813,0.23828 c -0.121486,0.36446 -0.375111,0.86144 -0.605469,1.0918 l -0.142578,0.14257 H 24.375 c 0,0 0.13237,3.2e-4 0.283203,-0.0332 0.123951,-0.0275 0.248184,-0.10895 0.341797,-0.2168 0.09361,0.10785 0.217846,0.18926 0.341797,0.2168 0.150833,0.0335 0.283203,0.0332 0.283203,0.0332 h 0.201172 l -0.142578,-0.14257 c -0.230358,-0.23036 -0.483983,-0.72734 -0.605469,-1.0918 z m 0,0.42969 c 0.115348,0.30251 0.283013,0.6151 0.476562,0.85742 -0.04136,-0.004 -0.04724,-8e-5 -0.09961,-0.0117 -0.130416,-0.029 -0.26011,-0.0886 -0.302734,-0.17383 L 25,131.43945 l -0.07422,0.14844 c -0.04262,0.0853 -0.172318,0.14485 -0.302734,0.17383 -0.05237,0.0116 -0.05825,0.007 -0.09961,0.0117 0.19355,-0.24232 0.361215,-0.55491 0.476563,-0.85742 z"/></g></g></g><text xml:space="preserve" style="font-size:2.66668px;line-height:1.25;font-family:sans-serif;fill:#00f;stroke-width:.25" id="text5115" x="23.824" y="136.846"><tspan id="tspan5113" style="fill:#00f;stroke-width:.25" x="23.824" y="136.846"><tspan style="font-style:italic;fill:#00f" id="tspan5117">k</tspan><tspan style="font-size:65%;baseline-shift:sub;fill:#00f" id="tspan5119">min</tspan></tspan></text><g id="g8249" transform="translate(-7.5,17.5)"><rect style="fill:#fff;fill-opacity:.638211;stroke:#000;stroke-width:.25" id="rect7748" width="30" height="5" x="40" y="85"/><path style="fill:none;stroke:#ccc;stroke-width:.25px;stroke-linecap:butt;stroke-linejoin:miter;stroke-opacity:1" id="path7753" d="M 45,90 V 85"/><use id="use7755" x="0" y="0" transform="translate(10)" xlink:href="#path7753"/><use id="use7757" x="0" y="0" transform="translate(5)" xlink:href="#use7755"/><use id="use7759" x="0" y="0" transform="translate(5)" xlink:href="#use7757"/><use id="use7761" x="0" y="0" transform="translate(5)" xlink:href="#path7753"/><rect style="fill:#ccc;fill-opacity:.638211;stroke:none;stroke-width:.25" id="rect7907" width="5" height="5" x="55" y="85"/><text xml:space="preserve" style="font-size:2px;line-height:1.25;font-family:sans-serif;fill:#666;stroke-width:.25" id="text8238" x="55.613" y="88.246"><tspan id="tspan8236" style="font-size:2px;fill:#666;stroke-width:.25" x="55.613" y="88.246">mid</tspan></text></g><use id="use8251" x="0" y="0" transform="translate(10,-5)" xlink:href="#g8249"/><use id="use8253" x="0" y="0" transform="translate(10,-5)" xlink:href="#use8251"/><use id="use8255" x="0" y="0" transform="translate(-10,5)" xlink:href="#g8249"/><rect style="fill:url(#linearGradient5414);fill-opacity:1;stroke:none;stroke-width:.205639" id="rect5381" width="9.742" height="43.448" x="-93.155" y="87.276" transform="scale(-1,1)"/><text xml:space="preserve" style="font-size:2.66668px;line-height:1.25;font-family:sans-serif;stroke-width:.25" id="text11076" x="15.229" y="110.509"><tspan id="tspan11074" style="stroke-width:.25" x="15.229" y="110.509"><tspan style="font-style:italic" id="tspan11070">p</tspan><tspan style="font-size:65%;baseline-shift:sub" id="tspan11072">min</tspan></tspan></text><text xml:space="preserve" style="font-size:2.66668px;line-height:1.25;font-family:sans-serif;stroke-width:.25" id="text11084" x="15.229" y="95.468"><tspan id="tspan11082" style="stroke-width:.25" x="15.229" y="95.468"><tspan style="font-style:italic" id="tspan11078">p</tspan><tspan style="font-style:italic;font-size:65%;baseline-shift:sub" id="tspan11090">lb</tspan></tspan></text><g id="path11294"><path style="color:#000;fill:#00f" id="path8555" d="m 74.875,131.75586 v 2.5 h 0.25 v -2.5 z"/><g id="g8545"><g id="path8547"><path style="color:#000;fill:#00f;fill-rule:evenodd;stroke-width:.125pt" id="path8551" d="m 75,131.00676 c 0.125,0.375 0.375,0.875 0.625,1.125 0,0 -0.5,0 -0.625,-0.25 -0.125,0.25 -0.625,0.25 -0.625,0.25 0.25,-0.25 0.5,-0.75 0.625,-1.125 z"/><path style="color:#000;fill:#00f;fill-rule:evenodd" id="path8553" d="m 75,130.74414 -0.07813,0.23633 c -0.121486,0.36446 -0.375111,0.86144 -0.605469,1.0918 l -0.142578,0.14257 H 74.375 c 0,0 0.13237,3.2e-4 0.283203,-0.0332 0.123894,-0.0275 0.24818,-0.1071 0.341797,-0.21484 0.09362,0.10774 0.217903,0.18731 0.341797,0.21484 0.150833,0.0335 0.283203,0.0332 0.283203,0.0332 h 0.201172 l -0.142578,-0.14257 c -0.230358,-0.23036 -0.483983,-0.72734 -0.605469,-1.0918 z m 0,0.42969 c 0.115348,0.30251 0.283013,0.6151 0.476562,0.85742 -0.04136,-0.004 -0.04724,-8e-5 -0.09961,-0.0117 -0.130416,-0.029 -0.26011,-0.0905 -0.302734,-0.17578 L 75,131.69531 l -0.07422,0.14844 c -0.04262,0.0853 -0.172318,0.1468 -0.302734,0.17578 -0.05237,0.0116 -0.05825,0.007 -0.09961,0.0117 0.19355,-0.24232 0.361215,-0.55491 0.476563,-0.85742 z"/></g></g></g><text xml:space="preserve" style="font-size:2.66668px;line-height:1.25;font-family:sans-serif;fill:#00f;stroke-width:.25" id="text11310" x="73.39" y="136.834"><tspan id="tspan11308" style="fill:#00f;stroke-width:.25" x="73.39" y="136.834"><tspan style="font-style:italic;fill:#00f" id="tspan11304">k</tspan><tspan style="font-style:italic;font-size:65%;baseline-shift:sub;fill:#00f" id="tspan11306">lb</tspan></tspan></text><path style="fill:none;stroke:#000;stroke-width:.25px;stroke-linecap:butt;stroke-linejoin:miter;stroke-opacity:1" id="path11517" d="m 50,121.25 v -2.5"/><path style="fill:none;stroke:#000;stroke-width:.25px;stroke-linecap:butt;stroke-linejoin:miter;stroke-opacity:1" id="use11519" d="m 60,121.25 v -2.5"/><path style="fill:none;stroke:#000;stroke-width:.25px;stroke-linecap:butt;stroke-linejoin:miter;stroke-opacity:1" id="use11521" d="m 70,121.25 v -2.5"/><path style="fill:none;stroke:#000;stroke-width:.25px;stroke-linecap:butt;stroke-linejoin:miter;stroke-opacity:1" id="use11523" d="m 40,121.25 v -2.5"/><path style="fill:none;stroke:#000;stroke-width:.25px;stroke-linecap:butt;stroke-linejoin:miter;stroke-opacity:1" id="use11525" d="m 30,121.25 v -2.5"/><path style="fill:none;stroke:#000;stroke-width:.25px;stroke-linecap:butt;stroke-linejoin:miter;stroke-opacity:1" id="use11527" d="m 20,121.25 v -2.5"/><path style="fill:none;stroke:#000;stroke-width:.25px;stroke-linecap:butt;stroke-linejoin:miter;stroke-opacity:1" id="use11529" d="m 80,121.25 v -2.5"/><g id="g11559" transform="translate(4.9999995)"><text xml:space="preserve" style="font-size:2.66668px;line-height:1.25;font-family:sans-serif;stroke-width:.25" id="text11533" x="44.152" y="123.774"><tspan id="tspan11531" style="stroke-width:.25" x="44.152" y="123.774">0</tspan></text><text xml:space="preserve" style="font-size:2.66668px;line-height:1.25;font-family:sans-serif;stroke-width:.25" id="text11537" x="54.128" y="123.812"><tspan id="tspan11535" style="stroke-width:.25" x="54.128" y="123.812">2</tspan></text><text xml:space="preserve" style="font-size:2.66668px;line-height:1.25;font-family:sans-serif;stroke-width:.25" id="text11541" x="64.187" y="123.812"><tspan id="tspan11539" style="stroke-width:.25" x="64.187" y="123.812">4</tspan></text><text xml:space="preserve" style="font-size:2.66668px;line-height:1.25;font-family:sans-serif;stroke-width:.25" id="text11545" x="74.157" y="123.774"><tspan id="tspan11543" style="stroke-width:.25" x="74.157" y="123.774">6</tspan></text><text xml:space="preserve" style="font-size:2.66668px;line-height:1.25;font-family:sans-serif;stroke-width:.25" id="text11549" x="33.205" y="123.812"><tspan id="tspan11547" style="stroke-width:.25" x="33.205" y="123.812">-2</tspan></text><text xml:space="preserve" style="font-size:2.66668px;line-height:1.25;font-family:sans-serif;stroke-width:.25" id="text11553" x="23.215" y="123.812"><tspan id="tspan11551" style="stroke-width:.25" x="23.215" y="123.812">-4</tspan></text><text xml:space="preserve" style="font-size:2.66668px;line-height:1.25;font-family:sans-serif;stroke-width:.25" id="text11557" x="13.188" y="123.774"><tspan id="tspan11555" style="stroke-width:.25" x="13.188" y="123.774">-6</tspan></text></g><text xml:space="preserve" style="font-size:2.66668px;line-height:1.25;font-family:sans-serif;stroke-width:.25" id="text11565" x="91.308" y="122.866"><tspan id="tspan11563" style="stroke-width:.25" x="91.308" y="122.866"><tspan style="font-style:italic" id="tspan11561">t</tspan></tspan></text><g id="path11567" style="fill:#000"><path style="color:#000;fill:#000;stroke-width:.25px;-inkscape-stroke:none" id="path6306" d="M 12.5,120 H 90"/><path style="color:#000;fill:#000;-inkscape-stroke:none" id="path6308" d="m 12.5,119.875 v 0.25 H 90 v -0.25 z"/><g id="g6300" style="fill:#000"><path style="fill:#000;fill-rule:evenodd;stroke-width:.125" id="path6302" d="M 90,120 89.375,120.625 91.5625,120 89.375,119.375 Z"/></g></g><text xml:space="preserve" style="font-size:2.66668px;line-height:1.25;font-family:sans-serif;fill:#00f;stroke-width:.25" id="text3831" x="48.625" y="90.211"><tspan id="tspan3829" style="fill:#00f;stroke-width:.25" x="48.625" y="90.211">Signal <tspan style="font-style:italic;font-variant:normal;font-weight:400;font-stretch:normal;font-family:sans-serif;-inkscape-font-specification:'sans-serif Italic';fill:#00f" id="tspan3833">x[k]</tspan> →</tspan></text></g></svg>