<svg xmlns="http://www.w3.org/2000/svg" xmlns:svg="http://www.w3.org/2000/svg" xmlns:xlink="http://www.w3.org/1999/xlink" id="svg5" width="353.321" height="222.723" version="1.1" viewBox="0 0 88.33 55.681"><defs id="defs2"><rect id="rect12253" width="40" height="130" x="30" y="620"/><linearGradient id="linearGradient5412"><stop style="stop-color:#fff;stop-opacity:1" id="stop5408" offset="0"/><stop style="stop-color:#fff;stop-opacity:0" id="stop5410" offset="1"/></linearGradient><linearGradient id="linearGradient12609" x1="87.758" x2="101.25" y1="108.879" y2="108.879" gradientTransform="matrix(0.68350147,0,0,0.99755513,-35.284007,71.090038)" gradientUnits="userSpaceOnUse" xlink:href="#linearGradient5412"/></defs><g id="layer2" transform="translate(-16.944289,-151.91191)"><rect style="fill:#fff;stroke:#fff;stroke-width:.264956" id="rect3257" width="87.791" height="55.416" x="17.077" y="152.044"/></g><g id="layer1" transform="translate(-16.944289,-151.91191)"><rect style="fill:#00f;fill-opacity:.170732;stroke:none;stroke-width:.242536" id="rect11035" width="40" height="41.179" x="27.5" y="158.821"/><path style="fill:none;stroke:#000;stroke-width:.25px;stroke-linecap:butt;stroke-linejoin:miter;stroke-opacity:1" id="use5894" d="m 60,191.25 v -2.5"/><path style="fill:none;stroke:#000;stroke-width:.25px;stroke-linecap:butt;stroke-linejoin:miter;stroke-opacity:1" id="use1438" d="m 70,191.25 v -2.5"/><path style="fill:none;stroke:#000;stroke-width:.25px;stroke-linecap:butt;stroke-linejoin:miter;stroke-opacity:1" id="use1440" d="m 80,191.25 v -2.5"/><path style="fill:none;stroke:#000;stroke-width:.25px;stroke-linecap:butt;stroke-linejoin:miter;stroke-opacity:1" id="use1442" d="m 50,191.25 v -2.5"/><path style="fill:none;stroke:#000;stroke-width:.25px;stroke-linecap:butt;stroke-linejoin:miter;stroke-opacity:1" id="use1444" d="m 40,191.25 v -2.5"/><path style="fill:none;stroke:#000;stroke-width:.25px;stroke-linecap:butt;stroke-linejoin:miter;stroke-opacity:1" id="use1446" d="m 30,191.25 v -2.5"/><path style="fill:none;stroke:#000;stroke-width:.25px;stroke-linecap:butt;stroke-linejoin:miter;stroke-opacity:1" id="use1865" d="m 90,191.25 v -2.5"/><text xml:space="preserve" style="font-size:2.66668px;line-height:1.25;font-family:sans-serif;stroke-width:.25" id="text2498" x="68.322" y="193.49"><tspan id="tspan2496" style="stroke-width:.25" x="68.322" y="193.49">50</tspan></text><text xml:space="preserve" style="font-size:2.66668px;line-height:1.25;font-family:sans-serif;stroke-width:.25" id="text2502" x="78.29" y="193.49"><tspan id="tspan2500" style="stroke-width:.25" x="78.29" y="193.49">52</tspan></text><text xml:space="preserve" style="font-size:2.66668px;line-height:1.25;font-family:sans-serif;stroke-width:.25" id="text2506" x="88.32" y="193.49"><tspan id="tspan2504" style="stroke-width:.25" x="88.32" y="193.49">54</tspan></text><text xml:space="preserve" style="font-size:2.66668px;line-height:1.25;font-family:sans-serif;stroke-width:.25" id="text2510" x="28.329" y="193.49"><tspan id="tspan2508" style="stroke-width:.25" x="28.329" y="193.49">42</tspan></text><text xml:space="preserve" style="font-size:2.66668px;line-height:1.25;font-family:sans-serif;stroke-width:.25" id="text2514" x="58.281" y="193.49"><tspan id="tspan2512" style="stroke-width:.25" x="58.281" y="193.49">48</tspan></text><text xml:space="preserve" style="font-size:2.66668px;line-height:1.25;font-family:sans-serif;stroke-width:.25" id="text2518" x="48.312" y="193.49"><tspan id="tspan2516" style="stroke-width:.25" x="48.312" y="193.49">46</tspan></text><text xml:space="preserve" style="font-size:2.66668px;line-height:1.25;font-family:sans-serif;stroke-width:.25" id="text2522" x="38.339" y="193.49"><tspan id="tspan2520" style="stroke-width:.25" x="38.339" y="193.49">44</tspan></text><text xml:space="preserve" style="font-size:2.66668px;line-height:1.25;font-family:sans-serif;stroke-width:.25" id="text3927" x="104.147" y="192.418"><tspan id="tspan3925" style="stroke-width:.25" x="104.147" y="192.418"><tspan style="font-style:italic" id="tspan3943">t</tspan></tspan></text><rect style="fill:none;stroke:#00f;stroke-width:.25" id="use10565" width="5" height="5" x="92.5" y="195"/><text xml:space="preserve" style="font-size:2.66668px;line-height:1.25;font-family:sans-serif;fill:#00f;stroke-width:.25" id="text10569" x="93.317" y="198.453"><tspan id="tspan10567" style="fill:#00f;stroke-width:.25" x="93.317" y="198.453">55</tspan></text><rect style="fill:none;stroke:#00f;stroke-width:.25" id="use10573" width="5" height="5" x="57.5" y="195"/><rect style="fill:none;stroke:#00f;stroke-width:.25" id="use10575" width="5" height="5" x="62.5" y="195"/><rect style="fill:none;stroke:#00f;stroke-width:.25" id="use10577" width="5" height="5" x="67.5" y="195"/><rect style="fill:none;stroke:#00f;stroke-width:.25" id="use10579" width="5" height="5" x="72.5" y="195"/><rect style="fill:none;stroke:#00f;stroke-width:.25" id="use10581" width="5" height="5" x="77.5" y="195"/><rect style="fill:none;stroke:#00f;stroke-width:.25" id="use10583" width="5" height="5" x="82.5" y="195"/><rect style="fill:none;stroke:#00f;stroke-width:.25" id="use10585" width="5" height="5" x="87.5" y="195"/><text xml:space="preserve" style="font-size:2.66668px;line-height:1.25;font-family:sans-serif;fill:#00f;stroke-width:.25" id="text10591" x="88.317" y="198.453"><tspan id="tspan10587" style="fill:#00f;stroke-width:.25" x="88.317" y="198.453">54</tspan></text><text xml:space="preserve" style="font-size:2.66668px;line-height:1.25;font-family:sans-serif;fill:#00f;stroke-width:.25" id="text10597" x="83.317" y="198.453"><tspan id="tspan10593" style="fill:#00f;stroke-width:.25" x="83.317" y="198.453">53</tspan></text><text xml:space="preserve" style="font-size:2.66668px;line-height:1.25;font-family:sans-serif;fill:#00f;stroke-width:.25" id="text10603" x="78.317" y="198.453"><tspan id="tspan10599" style="fill:#00f;stroke-width:.25" x="78.317" y="198.453">52</tspan></text><text xml:space="preserve" style="font-size:2.66668px;line-height:1.25;font-family:sans-serif;fill:#00f;stroke-width:.25" id="text10609" x="73.317" y="198.453"><tspan id="tspan10605" style="fill:#00f;stroke-width:.25" x="73.317" y="198.453">51</tspan></text><text xml:space="preserve" style="font-size:2.66668px;line-height:1.25;font-family:sans-serif;fill:#00f;stroke-width:.25" id="text10615" x="68.317" y="198.453"><tspan id="tspan10611" style="fill:#00f;stroke-width:.25" x="68.317" y="198.453">50</tspan></text><text xml:space="preserve" style="font-size:2.66668px;line-height:1.25;font-family:sans-serif;fill:#00f;stroke-width:.25" id="text10621" x="63.317" y="198.453"><tspan id="tspan10617" style="fill:#00f;stroke-width:.25" x="63.317" y="198.453">49</tspan></text><text xml:space="preserve" style="font-size:2.66668px;line-height:1.25;font-family:sans-serif;fill:#00f;stroke-width:.25" id="text10627" x="58.317" y="198.453"><tspan id="tspan10623" style="fill:#00f;stroke-width:.25" x="58.317" y="198.453">48</tspan></text><use id="use10810" x="0" y="0" transform="translate(-20)" xlink:href="#use10573"/><use id="use10812" x="0" y="0" transform="translate(-20)" xlink:href="#use10575"/><use id="use10814" x="0" y="0" transform="translate(-20)" xlink:href="#use10577"/><use id="use10816" x="0" y="0" transform="translate(-20)" xlink:href="#use10579"/><text xml:space="preserve" style="font-size:2.66668px;line-height:1.25;font-family:sans-serif;fill:#00f;stroke-width:.25" id="text10822" x="53.324" y="198.453"><tspan id="tspan10818" style="fill:#00f;stroke-width:.25" x="53.324" y="198.453">47</tspan></text><text xml:space="preserve" style="font-size:2.66668px;line-height:1.25;font-family:sans-serif;fill:#00f;stroke-width:.25" id="text10828" x="48.322" y="198.471"><tspan id="tspan10824" style="fill:#00f;stroke-width:.25" x="48.322" y="198.471">46</tspan></text><text xml:space="preserve" style="font-size:2.66668px;line-height:1.25;font-family:sans-serif;fill:#00f;stroke-width:.25" id="text10834" x="43.355" y="198.453"><tspan id="tspan10830" style="fill:#00f;stroke-width:.25" x="43.355" y="198.453">45</tspan></text><text xml:space="preserve" style="font-size:2.66668px;line-height:1.25;font-family:sans-serif;fill:#00f;stroke-width:.25" id="text10840" x="38.313" y="198.472"><tspan id="tspan10836" style="fill:#00f;stroke-width:.25" x="38.313" y="198.472">44</tspan></text><g id="use12573" transform="translate(32.5,75)"><rect style="fill:#fff;fill-opacity:.638211;stroke:#000;stroke-width:.25" id="rect4160" width="30" height="5" x="40" y="85"/><path style="fill:none;stroke:#ccc;stroke-width:.25px;stroke-linecap:butt;stroke-linejoin:miter;stroke-opacity:1" id="path4162" d="M 45,90 V 85"/><path style="fill:none;stroke:#ccc;stroke-width:.25px;stroke-linecap:butt;stroke-linejoin:miter;stroke-opacity:1" id="use4164" d="M 55,90 V 85"/><path style="fill:none;stroke:#ccc;stroke-width:.25px;stroke-linecap:butt;stroke-linejoin:miter;stroke-opacity:1" id="use4166" d="M 60,90 V 85"/><path style="fill:none;stroke:#ccc;stroke-width:.25px;stroke-linecap:butt;stroke-linejoin:miter;stroke-opacity:1" id="use4168" d="M 65,90 V 85"/><path style="fill:none;stroke:#ccc;stroke-width:.25px;stroke-linecap:butt;stroke-linejoin:miter;stroke-opacity:1" id="use4170" d="M 50,90 V 85"/><rect style="fill:#ccc;fill-opacity:.638211;stroke:none;stroke-width:.25" id="rect4172" width="5" height="5" x="55" y="85"/><text xml:space="preserve" style="font-size:2px;line-height:1.25;font-family:sans-serif;fill:#666;stroke-width:.25" id="text4176" x="55.613" y="88.246"><tspan id="tspan4174" style="font-size:2px;fill:#666;stroke-width:.25" x="55.613" y="88.246">mid</tspan></text></g><rect style="fill:#fff;fill-opacity:.752033;stroke:#fff;stroke-width:.25;stroke-opacity:.747967" id="rect12575" width="30" height="5" x="72.5" y="160"/><g id="g12595" transform="translate(2.5,90)"><rect style="fill:#fff;fill-opacity:.638211;stroke:#000;stroke-width:.25" id="rect12577" width="30" height="5" x="40" y="85"/><path style="fill:none;stroke:#ccc;stroke-width:.25px;stroke-linecap:butt;stroke-linejoin:miter;stroke-opacity:1" id="path12579" d="M 45,90 V 85"/><path style="fill:none;stroke:#ccc;stroke-width:.25px;stroke-linecap:butt;stroke-linejoin:miter;stroke-opacity:1" id="use12581" d="M 55,90 V 85"/><path style="fill:none;stroke:#ccc;stroke-width:.25px;stroke-linecap:butt;stroke-linejoin:miter;stroke-opacity:1" id="use12583" d="M 60,90 V 85"/><path style="fill:none;stroke:#ccc;stroke-width:.25px;stroke-linecap:butt;stroke-linejoin:miter;stroke-opacity:1" id="use12585" d="M 65,90 V 85"/><path style="fill:none;stroke:#ccc;stroke-width:.25px;stroke-linecap:butt;stroke-linejoin:miter;stroke-opacity:1" id="use12587" d="M 50,90 V 85"/><rect style="fill:#ccc;fill-opacity:.638211;stroke:none;stroke-width:.25" id="rect12589" width="5" height="5" x="55" y="85"/><text xml:space="preserve" style="font-size:2px;line-height:1.25;font-family:sans-serif;fill:#666;stroke-width:.25" id="text12593" x="55.613" y="88.246"><tspan id="tspan12591" style="font-size:2px;fill:#666;stroke-width:.25" x="55.613" y="88.246">mid</tspan></text></g><g id="use12597" transform="translate(12.5,85)"><rect style="fill:#fff;fill-opacity:.638211;stroke:#000;stroke-width:.25" id="rect4196" width="30" height="5" x="40" y="85"/><path style="fill:none;stroke:#ccc;stroke-width:.25px;stroke-linecap:butt;stroke-linejoin:miter;stroke-opacity:1" id="path4198" d="M 45,90 V 85"/><path style="fill:none;stroke:#ccc;stroke-width:.25px;stroke-linecap:butt;stroke-linejoin:miter;stroke-opacity:1" id="use4200" d="M 55,90 V 85"/><path style="fill:none;stroke:#ccc;stroke-width:.25px;stroke-linecap:butt;stroke-linejoin:miter;stroke-opacity:1" id="use4202" d="M 60,90 V 85"/><path style="fill:none;stroke:#ccc;stroke-width:.25px;stroke-linecap:butt;stroke-linejoin:miter;stroke-opacity:1" id="use4204" d="M 65,90 V 85"/><path style="fill:none;stroke:#ccc;stroke-width:.25px;stroke-linecap:butt;stroke-linejoin:miter;stroke-opacity:1" id="use4206" d="M 50,90 V 85"/><rect style="fill:#ccc;fill-opacity:.638211;stroke:none;stroke-width:.25" id="rect4208" width="5" height="5" x="55" y="85"/><text xml:space="preserve" style="font-size:2px;line-height:1.25;font-family:sans-serif;fill:#666;stroke-width:.25" id="text4212" x="55.613" y="88.246"><tspan id="tspan4210" style="font-size:2px;fill:#666;stroke-width:.25" x="55.613" y="88.246">mid</tspan></text></g><g id="use12599" transform="translate(22.5,80)"><rect style="fill:#fff;fill-opacity:.638211;stroke:#000;stroke-width:.25" id="rect4224" width="30" height="5" x="40" y="85"/><path style="fill:none;stroke:#ccc;stroke-width:.25px;stroke-linecap:butt;stroke-linejoin:miter;stroke-opacity:1" id="path4226" d="M 45,90 V 85"/><path style="fill:none;stroke:#ccc;stroke-width:.25px;stroke-linecap:butt;stroke-linejoin:miter;stroke-opacity:1" id="use4228" d="M 55,90 V 85"/><path style="fill:none;stroke:#ccc;stroke-width:.25px;stroke-linecap:butt;stroke-linejoin:miter;stroke-opacity:1" id="use4230" d="M 60,90 V 85"/><path style="fill:none;stroke:#ccc;stroke-width:.25px;stroke-linecap:butt;stroke-linejoin:miter;stroke-opacity:1" id="use4232" d="M 65,90 V 85"/><path style="fill:none;stroke:#ccc;stroke-width:.25px;stroke-linecap:butt;stroke-linejoin:miter;stroke-opacity:1" id="use4234" d="M 50,90 V 85"/><rect style="fill:#ccc;fill-opacity:.638211;stroke:none;stroke-width:.25" id="rect4236" width="5" height="5" x="55" y="85"/><text xml:space="preserve" style="font-size:2px;line-height:1.25;font-family:sans-serif;fill:#666;stroke-width:.25" id="text4240" x="55.613" y="88.246"><tspan id="tspan4238" style="font-size:2px;fill:#666;stroke-width:.25" x="55.613" y="88.246">mid</tspan></text></g><g id="use12601" transform="translate(-7.5,95)"><rect style="fill:#fff;fill-opacity:.638211;stroke:#000;stroke-width:.25" id="rect4252" width="30" height="5" x="40" y="85"/><path style="fill:none;stroke:#ccc;stroke-width:.25px;stroke-linecap:butt;stroke-linejoin:miter;stroke-opacity:1" id="path4254" d="M 45,90 V 85"/><path style="fill:none;stroke:#ccc;stroke-width:.25px;stroke-linecap:butt;stroke-linejoin:miter;stroke-opacity:1" id="use4256" d="M 55,90 V 85"/><path style="fill:none;stroke:#ccc;stroke-width:.25px;stroke-linecap:butt;stroke-linejoin:miter;stroke-opacity:1" id="use4258" d="M 60,90 V 85"/><path style="fill:none;stroke:#ccc;stroke-width:.25px;stroke-linecap:butt;stroke-linejoin:miter;stroke-opacity:1" id="use4260" d="M 65,90 V 85"/><path style="fill:none;stroke:#ccc;stroke-width:.25px;stroke-linecap:butt;stroke-linejoin:miter;stroke-opacity:1" id="use4262" d="M 50,90 V 85"/><rect style="fill:#ccc;fill-opacity:.638211;stroke:none;stroke-width:.25" id="rect4264" width="5" height="5" x="55" y="85"/><text xml:space="preserve" style="font-size:2px;line-height:1.25;font-family:sans-serif;fill:#666;stroke-width:.25" id="text4268" x="55.613" y="88.246"><tspan id="tspan4266" style="font-size:2px;fill:#666;stroke-width:.25" x="55.613" y="88.246">mid</tspan></text></g><text xml:space="preserve" style="font-size:7.20544px;line-height:1.25;font-family:sans-serif;stroke-width:.675507" id="text12605" x="-40.725" y="185.89" transform="rotate(-19.854884)"><tspan id="tspan12603" style="font-weight:700;stroke-width:.675507" x="-40.725" y="185.89">...</tspan></text><use id="use13220" x="0" y="0" transform="translate(-10)" xlink:href="#use10810"/><use id="use13222" x="0" y="0" transform="translate(-10)" xlink:href="#use10812"/><text xml:space="preserve" style="font-size:2.66668px;line-height:1.25;font-family:sans-serif;fill:#00f;stroke-width:.25" id="text13228" x="33.345" y="198.471"><tspan id="tspan13224" style="fill:#00f;stroke-width:.25" x="33.345" y="198.471">43</tspan></text><text xml:space="preserve" style="font-size:2.66668px;line-height:1.25;font-family:sans-serif;fill:#00f;stroke-width:.25" id="text13234" x="28.372" y="198.49"><tspan id="tspan13230" style="fill:#00f;stroke-width:.25" x="28.372" y="198.49">42</tspan></text><rect style="fill:url(#linearGradient12609);fill-opacity:1;stroke:none;stroke-width:.197034" id="rect12607" width="9.221" height="42.138" x="24.699" y="158.634"/><g id="path13761" style="fill:#000"><path style="color:#000;fill:#000;-inkscape-stroke:none" id="path3302" d="m 22.375,155 v 34.80664 h 0.25 V 155 Z"/><g id="g3296" style="fill:#000"><path style="fill:#000;fill-rule:evenodd;stroke-width:.125" id="path3298" d="m 22.5,155 0.625,0.625 -0.625,-2.1875 -0.625,2.1875 z"/></g></g><path style="fill:none;stroke:#000;stroke-width:.25px;stroke-linecap:butt;stroke-linejoin:miter;stroke-opacity:1" id="use13763" d="m 21.25,177.5 h 2.5"/><path style="fill:none;stroke:#000;stroke-width:.25px;stroke-linecap:butt;stroke-linejoin:miter;stroke-opacity:1" id="use13765" d="m 21.25,182.5 h 2.5"/><path style="fill:none;stroke:#000;stroke-width:.25px;stroke-linecap:butt;stroke-linejoin:miter;stroke-opacity:1" id="use13767" d="m 21.25,172.5 h 2.5"/><path style="fill:none;stroke:#000;stroke-width:.25px;stroke-linecap:butt;stroke-linejoin:miter;stroke-opacity:1" id="use13769" d="m 21.25,167.5 h 2.5"/><path style="fill:none;stroke:#000;stroke-width:.25px;stroke-linecap:butt;stroke-linejoin:miter;stroke-opacity:1" id="use13771" d="m 21.25,162.5 h 2.5"/><text xml:space="preserve" style="font-size:2.66668px;line-height:1.25;font-family:sans-serif;stroke-width:.25" id="text13775" x="17.322" y="173.471"><tspan style="stroke-width:.25" id="tspan11485" x="17.322" y="173.471">25</tspan></text><text xml:space="preserve" style="font-size:2.66668px;line-height:1.25;font-family:sans-serif;stroke-width:.25" id="text13779" x="17.281" y="178.472"><tspan id="tspan13777" style="stroke-width:.25" x="17.281" y="178.472">24</tspan></text><text xml:space="preserve" style="font-size:2.66668px;line-height:1.25;font-family:sans-serif;stroke-width:.25" id="text13783" x="17.312" y="183.49"><tspan id="tspan13781" style="stroke-width:.25" x="17.312" y="183.49">23</tspan></text><text xml:space="preserve" style="font-size:2.66668px;line-height:1.25;font-family:sans-serif;stroke-width:.25" id="text13787" x="17.29" y="168.472"><tspan id="tspan13785" style="stroke-width:.25" x="17.29" y="168.472">26</tspan></text><text xml:space="preserve" style="font-size:2.66668px;line-height:1.25;font-family:sans-serif;stroke-width:.25" id="text13791" x="17.32" y="163.49"><tspan id="tspan13789" style="stroke-width:.25" x="17.32" y="163.49">27</tspan></text><text xml:space="preserve" style="font-size:2.66668px;line-height:1.25;font-family:sans-serif;stroke-width:.25" id="text13795" x="20.067" y="154.083"><tspan id="tspan13793" style="font-style:italic;stroke-width:.25" x="20.067" y="154.083">p</tspan></text><text xml:space="preserve" style="font-size:2.66668px;line-height:1.25;font-family:sans-serif;stroke-width:.25" id="text13803" x="24.878" y="162.994"><tspan id="tspan13801" style="stroke-width:.25" x="24.878" y="162.994"><tspan style="font-style:italic;baseline-shift:baseline" id="tspan13797">p</tspan><tspan style="font-size:65%;baseline-shift:sub" id="tspan12285">max</tspan></tspan></text><text xml:space="preserve" style="font-size:2.66668px;line-height:1.25;font-family:sans-serif;stroke-width:.25" id="text13811" x="25" y="178.13"><tspan id="tspan13809" style="stroke-width:.25" x="25" y="178.13"><tspan style="font-style:italic" id="tspan13805">p<tspan style="font-size:65%;baseline-shift:sub" id="tspan12275">u</tspan></tspan><tspan style="font-style:italic;font-size:65%;baseline-shift:sub" id="tspan13807">b</tspan></tspan></text><g id="path5876" style="fill:#000"><path style="color:#000;fill:#000;stroke-width:.25px;-inkscape-stroke:none" id="path5182" d="m 22.5,190 h 80"/><path style="color:#000;fill:#000;-inkscape-stroke:none" id="path5184" d="m 22.5,189.875 v 0.25 h 80 v -0.25 z"/><g id="g5176" style="fill:#000"><path style="fill:#000;fill-rule:evenodd;stroke-width:.125" id="path5178" d="m 102.5,190 -0.625,0.625 2.1875,-0.625 -2.1875,-0.625 z"/></g></g><g id="path12598"><path style="color:#000;fill:#00f;-inkscape-stroke:none" id="path8583" d="m 94.875,201.25 v 2.5 h 0.25 v -2.5 z"/><g id="g8573"><g id="path8575"><path style="color:#000;fill:#00f;fill-rule:evenodd;stroke-width:.125pt;-inkscape-stroke:none" id="path8579" d="m 95,200.5 c 0.125,0.375 0.375,0.875 0.625,1.125 0,0 -0.5,0 -0.625,-0.25 -0.125,0.25 -0.625,0.25 -0.625,0.25 0.25,-0.25 0.5,-0.75 0.625,-1.125 z"/><path style="color:#000;fill:#00f;fill-rule:evenodd;-inkscape-stroke:none" id="path8581" d="m 95,200.23633 -0.07813,0.23828 c -0.121486,0.36446 -0.375111,0.86144 -0.605469,1.0918 l -0.142578,0.14257 H 94.375 c 0,0 0.13237,3.2e-4 0.283203,-0.0332 0.123951,-0.0275 0.248184,-0.10895 0.341797,-0.2168 0.09361,0.10785 0.217846,0.18926 0.341797,0.2168 0.150833,0.0335 0.283203,0.0332 0.283203,0.0332 h 0.201172 l -0.142578,-0.14257 c -0.230358,-0.23036 -0.483983,-0.72734 -0.605469,-1.0918 z m 0,0.42969 c 0.115348,0.30251 0.283013,0.6151 0.476562,0.85742 -0.04136,-0.004 -0.04724,-8e-5 -0.09961,-0.0117 -0.130416,-0.029 -0.26011,-0.0886 -0.302734,-0.17383 L 95,201.18945 l -0.07422,0.14844 c -0.04262,0.0853 -0.172318,0.14485 -0.302734,0.17383 -0.05237,0.0116 -0.05825,0.007 -0.09961,0.0117 0.19355,-0.24232 0.361215,-0.55491 0.476563,-0.85742 z"/></g></g></g><text xml:space="preserve" style="font-size:2.66668px;line-height:1.25;font-family:sans-serif;fill:#00f;stroke-width:.25" id="text12606" x="93.5" y="206.09"><tspan id="tspan12604" style="fill:#00f;stroke-width:.25" x="93.5" y="206.09"><tspan style="font-style:italic;fill:#00f" id="tspan12600">k</tspan><tspan style="font-size:65%;baseline-shift:sub;fill:#00f" id="tspan12602">max</tspan></tspan></text><g id="path12608"><path style="color:#000;fill:#00f" id="path8569" d="m 44.875,201.25 v 2.5 h 0.25 v -2.5 z"/><g id="g8559"><g id="path8561"><path style="color:#000;fill:#00f;fill-rule:evenodd;stroke-width:.125pt" id="path8565" d="m 45,200.5 c 0.125,0.375 0.375,0.875 0.625,1.125 0,0 -0.5,0 -0.625,-0.25 -0.125,0.25 -0.625,0.25 -0.625,0.25 0.25,-0.25 0.5,-0.75 0.625,-1.125 z"/><path style="color:#000;fill:#00f;fill-rule:evenodd" id="path8567" d="m 45,200.23633 -0.07813,0.23828 c -0.121486,0.36446 -0.375111,0.86144 -0.605469,1.0918 l -0.142578,0.14257 H 44.375 c 0,0 0.13237,3.2e-4 0.283203,-0.0332 0.123951,-0.0275 0.248184,-0.10895 0.341797,-0.2168 0.09361,0.10785 0.217846,0.18926 0.341797,0.2168 0.150833,0.0335 0.283203,0.0332 0.283203,0.0332 h 0.201172 l -0.142578,-0.14257 c -0.230358,-0.23036 -0.483983,-0.72734 -0.605469,-1.0918 z m 0,0.42969 c 0.115348,0.30251 0.283013,0.6151 0.476562,0.85742 -0.04136,-0.004 -0.04724,-8e-5 -0.09961,-0.0117 -0.130416,-0.029 -0.26011,-0.0886 -0.302734,-0.17383 L 45,201.18945 l -0.07422,0.14844 c -0.04262,0.0853 -0.172318,0.14485 -0.302734,0.17383 -0.05237,0.0116 -0.05825,0.007 -0.09961,0.0117 0.19355,-0.24232 0.361215,-0.55491 0.476563,-0.85742 z"/></g></g></g><text xml:space="preserve" style="font-size:2.66668px;line-height:1.25;font-family:sans-serif;fill:#00f;stroke-width:.25" id="text12616" x="43.39" y="206.327"><tspan id="tspan12614" style="fill:#00f;stroke-width:.25" x="43.39" y="206.327"><tspan style="font-style:italic;fill:#00f" id="tspan12610">k</tspan><tspan style="font-style:italic;font-size:65%;baseline-shift:sub;fill:#00f" id="tspan12612">ub</tspan></tspan></text><text xml:space="preserve" style="font-size:2.66668px;line-height:1.25;font-family:sans-serif;fill:#00f;stroke-width:.25" id="use14904" x="24.137" y="198.513"><tspan id="tspan4292" style="fill:#00f;stroke-width:.25" x="24.137" y="198.513"><tspan style="font-style:italic" id="tspan4290">k</tspan></tspan></text><use id="use15196" x="0" y="0" transform="translate(5)" xlink:href="#use10565"/><text xml:space="preserve" style="font-size:2.66668px;line-height:1.25;font-family:sans-serif;fill:#00f;stroke-width:.25" id="text15202" x="98.317" y="198.453"><tspan style="fill:#00f;stroke-width:.25" id="tspan15200" x="98.317" y="198.453">56</tspan></text><path style="fill:none;stroke:#000;stroke-width:.25px;stroke-linecap:butt;stroke-linejoin:miter;stroke-opacity:1" id="use15595" d="m 100,191.25 v -2.5"/><text xml:space="preserve" style="font-size:2.66668px;line-height:1.25;font-family:sans-serif;stroke-width:.25" id="text15599" x="98.284" y="193.471"><tspan id="tspan15597" style="stroke-width:.25" x="98.284" y="193.471">56</tspan></text><text xml:space="preserve" style="font-size:2.66668px;line-height:1.25;font-family:sans-serif;fill:#00f;stroke-width:.25" id="text3841" x="49.922" y="161.805"><tspan id="tspan3839" style="fill:#00f;stroke-width:.25" x="49.922" y="161.805">â† Signal <tspan style="font-style:italic;font-variant:normal;font-weight:400;font-stretch:normal;font-family:sans-serif;-inkscape-font-specification:'sans-serif Italic';fill:#00f" id="tspan3837">x[k]</tspan></tspan></text></g></svg>